<svg width="255" height="649" viewBox="0 0 255 649" fill="none" xmlns="http://www.w3.org/2000/svg">
<path d="M61.1022 220.269C61.1022 220.269 129.944 159.196 192.268 197.061C240.118 226.133 230.966 300.885 230.966 300.885C230.966 300.885 216.302 228.412 180.455 209.276C129.371 182.006 61.1022 220.269 61.1022 220.269Z" fill="#0E1014"/>
<path d="M119.647 220.676C119.647 209.433 128.766 200.319 140.015 200.319H141.644C152.893 200.319 162.011 209.433 162.011 220.676V242.663H119.647V220.676Z" fill="#0D0C0C"/>
<path d="M153.864 242.663H126.165V375.394H153.864V242.663Z" fill="#D3A382"/>
<path d="M126.165 374.58H153.864V403.284C153.864 409.018 149.214 413.666 143.477 413.666C133.916 413.666 126.165 405.919 126.165 396.362V374.58Z" fill="#D3A382"/>
<path d="M148.161 383.503L153.331 381.094L156.946 388.843C157.611 390.27 156.994 391.966 155.566 392.63C154.139 393.296 152.443 392.679 151.777 391.253L148.161 383.503Z" fill="#D3A382"/>
<path d="M87.874 363.994H201.117V366.437C201.117 388.923 182.88 407.152 160.382 407.152H128.609C106.112 407.152 87.874 388.923 87.874 366.437V363.994Z" fill="#E1C79D"/>
<path d="M191.485 120.134C189.155 111.446 194.314 102.516 203.006 100.188L206.154 99.3451L212.058 121.369C213.455 126.582 210.36 131.94 205.145 133.337C199.93 134.733 194.569 131.64 193.171 126.427L191.485 120.134Z" fill="#D3A382"/>
<path d="M206.005 83.4661C206.005 45.0144 174.819 13.8431 136.349 13.8431C97.8786 13.8431 66.6923 45.0144 66.6923 83.4661V116.038C66.6923 154.49 97.8786 185.661 136.349 185.661C174.819 185.661 206.005 154.49 206.005 116.038V83.4661Z" fill="#D3A382"/>
<path d="M206.005 103.417C207.805 103.417 209.264 99.5885 209.264 94.8663C209.264 90.1442 207.805 86.3162 206.005 86.3162C204.205 86.3162 202.746 90.1442 202.746 94.8663C202.746 99.5885 204.205 103.417 206.005 103.417Z" fill="black"/>
<path d="M60.582 71.2516C65.9753 52.89 70.1868 41.5488 83.8005 28.0935C96.4576 15.5842 105.931 5.52203 123.721 6.10731C130.24 6.32177 140.015 9.77168 140.015 9.77168L142.866 83.8733L129.423 130.696C129.423 130.696 115.128 170.14 94.3915 170.597C84.6347 170.812 70.7657 162.454 70.7657 162.454C70.7657 162.454 50.4817 105.638 60.582 71.2516Z" fill="#121110"/>
<path d="M119.647 20.3576C119.647 9.11442 128.766 0 140.015 0H201.117V33.3864C201.117 46.8782 190.175 57.8156 176.676 57.8156H135.941C126.943 57.8156 119.647 50.524 119.647 41.5295V20.3576Z" fill="#121110"/>
<path d="M148.976 54.5583H140.015V132.731H148.976V54.5583Z" fill="#121110"/>
<path fill-rule="evenodd" clip-rule="evenodd" d="M119.647 40.7152V41.5295C119.647 50.5241 126.943 57.8156 135.941 57.8156H176.676C187.62 57.8156 196.884 50.6263 199.998 40.7152H119.647Z" fill="#0D0C0C"/>
<path d="M107.02 61.1928C112.234 47.1042 117.339 41.6708 119.24 40.7152H140.829L143.273 80.8513C138.25 96.824 128.283 129.179 128.609 130.817C129.016 132.864 120.462 148.427 119.24 150.885C118.018 153.342 108.65 163.99 105.391 166.857C102.132 169.725 96.0217 170.134 92.3556 170.953C89.4227 171.608 76.4686 165.765 70.3584 162.762L60.582 123.606C56.1012 103.538 79.6459 129.303 89.096 116.853C100.909 101.29 100.503 78.8036 107.02 61.1928Z" fill="#0D0C0C"/>
<path fill-rule="evenodd" clip-rule="evenodd" d="M168.186 40.1016C162.958 42.0033 162.64 49.2731 167.682 51.623C179.916 57.3249 194.457 52.0347 200.163 39.807C202.513 34.7675 197.595 29.4025 192.368 31.3043L168.186 40.1016Z" fill="#0D0C0C"/>
<path d="M144.903 5.90691C144.903 7.09809 145.788 8.09935 146.973 8.22853C151.394 8.71085 161.96 9.77156 169.344 9.77156C176.728 9.77156 187.293 8.71085 191.715 8.22853C192.9 8.09935 193.785 7.09809 193.785 5.90691C193.785 4.49727 192.558 3.40076 191.155 3.55132C186.454 4.05618 176.433 5.03379 169.344 5.03379C162.255 5.03379 152.234 4.05618 147.533 3.55132C146.13 3.40076 144.903 4.49727 144.903 5.90691Z" fill="#82726A" fill-opacity="0.1"/>
<path d="M197.043 80.5252C197.043 78.506 198.593 76.8233 200.61 76.7069C202.106 76.6206 203.814 76.5446 205.19 76.5446C206.567 76.5446 208.275 76.6206 209.771 76.7069C211.788 76.8233 213.337 78.506 213.337 80.5252C213.337 82.9189 211.188 84.7413 208.805 84.4995C207.574 84.3749 206.28 84.2804 205.19 84.2804C204.101 84.2804 202.807 84.3749 201.575 84.4995C199.193 84.7413 197.043 82.9189 197.043 80.5252Z" fill="#121110"/>
<path fill-rule="evenodd" clip-rule="evenodd" d="M140.829 83.059C125.532 83.059 113.13 94.1783 113.13 107.895C113.13 121.612 125.532 132.731 140.829 132.731V83.059Z" fill="#D3A382"/>
<path d="M87.874 228.819C87.874 210.831 102.464 196.247 120.462 196.247H144.088C175.584 196.247 201.117 221.767 201.117 253.248V364.808H87.874V228.819Z" fill="#0D0C0C"/>
<path d="M120.222 406.886C119.909 399.932 125.465 394.123 132.43 394.123H160.602C167.579 394.123 173.14 399.953 172.809 406.918L168.377 499.983L163.889 594.208C163.58 600.721 158.206 605.842 151.683 605.842H140.853C134.317 605.842 128.938 600.702 128.645 594.176L124.408 499.983L120.222 406.886Z" fill="#355691"/>
<path d="M126.979 618.056H166.085L214.152 649H123.313L126.979 618.056Z" fill="#1E1A1A"/>
<path d="M120.28 406.836C119.997 399.901 125.546 394.123 132.49 394.123H160.77C167.726 394.123 173.279 399.919 172.979 406.865L168.489 510.568L163.954 615.327C163.672 621.862 158.289 627.014 151.745 627.014H141.013C134.458 627.014 129.071 621.845 128.804 615.298L124.521 510.568L120.28 406.836Z" fill="#E1C79D"/>
<path d="M126.979 618.056H166.085L214.152 649H123.313L126.979 618.056Z" fill="#0D0D0E"/>
<path d="M119.647 220.676C119.647 209.433 128.766 200.319 140.015 200.319H141.644C152.893 200.319 162.011 209.433 162.011 220.676V242.663H119.647V220.676Z" fill="#0D0C0C"/>
<path d="M126.165 242.663H153.864V309.028L214.265 276.049L231.374 295.185C231.374 295.185 141.35 355.036 130.351 344.043C119.353 333.05 126.165 242.663 126.165 242.663Z" fill="#D3A382"/>
<path d="M231.374 295.185L209.629 279.581L226.101 256.068C229.392 251.371 235.868 250.229 240.568 253.518C248.4 258.999 250.303 269.789 244.82 277.617L231.374 295.185Z" fill="#D3A382"/>
<path d="M219.421 275.54L213.805 274.551L215.291 266.13C215.564 264.58 217.042 263.545 218.594 263.818C220.145 264.092 221.18 265.57 220.907 267.12L219.421 275.54Z" fill="#D3A382"/>
<path d="M65.0948 221.491H29.2482C16.6498 221.491 6.43671 231.699 6.43671 244.291V324.093C6.43671 336.685 16.6498 346.893 29.2482 346.893H65.0948C77.6933 346.893 87.9063 336.685 87.9063 324.093V244.291C87.9063 231.699 77.6933 221.491 65.0948 221.491Z" fill="#0E1014"/>
<path d="M6.02937 224.341C24.373 200.732 77.3153 224.341 77.3153 224.341C77.3153 224.341 26.8042 217.012 11.7323 232.077C6.84414 236.962 7.25142 275.235 7.25142 275.235C7.25142 275.235 -8.21622 242.676 6.02937 224.341Z" fill="#0E1014"/>
<path d="M6.84405 276.863C7.96891 276.863 8.88079 275.405 8.88079 273.606C8.88079 271.807 7.96891 270.349 6.84405 270.349C5.71919 270.349 4.80731 271.807 4.80731 273.606C4.80731 275.405 5.71919 276.863 6.84405 276.863Z" fill="#C4C4C4"/>
<path d="M229.744 299.664C146.645 342.333 85.4625 339.565 84.2404 335.493" stroke="#0E1014" stroke-width="2"/>
</svg>
