<svg width="398" height="518" viewBox="0 0 398 518" fill="none" xmlns="http://www.w3.org/2000/svg">
<g clip-path="url(#clip0_112_454)">
<path d="M273.694 371.856L294.104 372.057L293.495 433.896L273.085 433.695L273.694 371.856Z" fill="#E6E6E6"/>
<path d="M340.674 336.853C337.729 334.898 334.306 333.851 330.781 333.599L210.463 324.984C189.413 323.477 171.507 340.154 171.507 361.266C171.507 367.175 176.294 371.965 182.201 371.965H353.943C360.736 371.965 365.424 365.229 362.329 359.18C360.76 356.114 358.965 353.047 357.087 350.681C352.912 345.424 345.471 340.039 340.674 336.853Z" fill="#0E1014"/>
<path d="M397.345 82.5132C392.436 77.6017 384.511 74.8186 375.416 74.6548C365.838 74.4826 356.105 79.8938 352.178 82.5132C348.25 85.1327 328.448 208.248 328.448 208.248L330.248 333.982C330.248 333.982 342.257 350.54 352.178 358.867C356.663 362.632 358.396 363.124 364.288 367.708C370.179 372.292 360.458 294.511 364.288 247.867C369.677 182.234 402.255 87.4247 397.345 82.5132Z" fill="#0E1014"/>
<path d="M369.105 455.063C369.105 455.063 350.925 437.379 336.083 432.566C320.268 427.437 293.513 432.146 293.513 432.146L293.374 446.148C293.374 446.148 320.41 439.373 336.254 444.82C347.099 448.549 360.883 460.816 360.883 460.816L369.105 455.063Z" fill="#0E1014"/>
<path d="M195.302 455.56C195.302 455.56 213.826 438.238 228.76 433.718C244.674 428.902 271.331 434.138 271.331 434.138L271.193 448.139C271.193 448.139 244.296 440.833 228.348 445.966C217.432 449.481 203.409 461.474 203.409 461.474L195.302 455.56Z" fill="#0E1014"/>
<path d="M351.762 498.65L295.124 432.162L285.129 441.965L344.74 502.787L351.762 498.65Z" fill="#0E1014"/>
<path d="M268.405 435.108L215.583 498.474L223.707 502.639L281.749 442.241L268.405 435.108Z" fill="#0E1014"/>
<path d="M367.446 475.467C361.487 475.408 356.705 470.528 356.764 464.568C356.822 458.607 361.7 453.823 367.658 453.881C373.617 453.94 378.399 458.82 378.34 464.781C378.282 470.741 373.404 475.526 367.446 475.467Z" fill="#0E1014"/>
<path d="M350.698 517.894C344.74 517.835 339.957 512.955 340.016 506.995C340.074 501.034 344.952 496.25 350.91 496.308C356.869 496.367 361.651 501.247 361.593 507.207C361.534 513.168 356.656 517.953 350.698 517.894Z" fill="#0E1014"/>
<path d="M218.904 516.595C212.945 516.536 208.163 511.656 208.222 505.695C208.28 499.735 213.158 494.95 219.116 495.009C225.075 495.068 229.857 499.948 229.798 505.908C229.74 511.869 224.862 516.653 218.904 516.595Z" fill="#0E1014"/>
<path d="M198.301 476.717C192.343 476.658 187.56 471.779 187.619 465.818C187.678 459.857 192.556 455.073 198.514 455.132C204.472 455.19 209.255 460.07 209.196 466.031C209.137 471.991 204.26 476.776 198.301 476.717Z" fill="#0E1014"/>
<path d="M168.314 431.061L144.668 432.54C144.668 432.54 95.5567 457.856 95.1082 464.516C94.6598 471.177 173.839 457.626 173.839 457.626L168.314 431.061Z" fill="#0E1014"/>
<path d="M292.609 281.593H139.058C136.01 281.593 133.539 284.064 133.539 287.113C133.539 310.828 152.757 330.053 176.462 330.053H292.609V281.593Z" fill="#E1C79D"/>
<path d="M143.982 433.14L125.679 299.664C124.308 289.673 132.21 280.835 142.264 281.568C153.718 282.402 166.594 283.902 169.543 286.504C175.107 291.416 168.234 431.23 168.234 431.23L143.982 433.14Z" fill="#E1C79D"/>
<path d="M168.314 431.061L144.668 432.54C144.668 432.54 95.5567 457.856 95.1082 464.516C94.6598 471.177 173.839 457.626 173.839 457.626L168.314 431.061Z" fill="#0D0D0E"/>
<path d="M292.609 281.593H139.058C136.01 281.593 133.539 284.064 133.539 287.113C133.539 310.828 152.757 330.053 176.462 330.053H292.609V281.593Z" fill="#E1C79D"/>
<path d="M143.982 433.14L125.679 299.664C124.308 289.673 132.21 280.835 142.264 281.568C153.718 282.402 166.594 283.902 169.543 286.504C175.107 291.416 168.234 431.23 168.234 431.23L143.982 433.14Z" fill="#E1C79D"/>
<path d="M270.531 177.914H294.63V293.495H270.531V177.914Z" fill="#D3A382"/>
<path d="M294.63 292.786H270.531V317.781C270.531 322.774 274.577 326.822 279.567 326.822C287.886 326.822 294.63 320.075 294.63 311.754V292.786Z" fill="#D3A382"/>
<path d="M275.492 300.556L270.995 298.458L267.85 305.206C267.271 306.448 267.809 307.926 269.051 308.504C270.292 309.084 271.768 308.546 272.347 307.304L275.492 300.556Z" fill="#D3A382"/>
<g filter="url(#filter0_i_112_454)">
<path d="M237.179 89.3475C239.025 82.3862 234.935 75.2311 228.044 73.3654L225.549 72.6902L220.868 90.337C219.76 94.5137 222.214 98.807 226.348 99.9262C230.483 101.045 234.733 98.566 235.841 94.3899L237.179 89.3475Z" fill="#D3A382"/>
</g>
<path d="M267.478 123.101H298.666V159.974H267.478V123.101Z" fill="#D3A382"/>
<path d="M329.01 281.191L238.627 278.033L238.528 280.873C237.615 307.016 251.431 328.718 269.387 329.345L294.746 330.231C312.702 330.858 327.998 310.173 328.91 284.031L329.01 281.191Z" fill="#E1C79D"/>
<g filter="url(#filter1_ii_112_454)">
<path d="M227.148 66.5935C227.148 35.9633 252.06 11.1328 282.789 11.1328C313.519 11.1328 338.431 35.9633 338.431 66.5935V92.5393C338.431 123.169 313.519 148 282.789 148C252.06 148 227.148 123.169 227.148 92.5393V66.5935Z" fill="#D3A382"/>
</g>
<path d="M227.148 82.5133C225.702 82.5133 224.53 79.4347 224.53 75.6371C224.53 71.8396 225.702 68.761 227.148 68.761C228.594 68.761 229.766 71.8396 229.766 75.6371C229.766 79.4347 228.594 82.5133 227.148 82.5133Z" fill="black"/>
<path d="M342.743 56.7245C338.47 42.0337 335.134 32.9598 324.348 22.1943C314.321 12.1858 306.815 4.13521 292.721 4.60349C287.556 4.77507 279.812 7.53527 279.812 7.53527L277.553 66.8233L288.203 104.285C288.203 104.285 299.528 135.844 315.957 136.209C323.687 136.381 334.675 129.694 334.675 129.694C334.675 129.694 350.745 84.2369 342.743 56.7245Z" fill="#121110"/>
<path d="M295.882 16.1411C295.882 7.22666 288.628 0 279.68 0H231.076V26.4714C231.076 37.1688 239.781 45.8407 250.517 45.8407H282.92C290.079 45.8407 295.882 40.0594 295.882 32.9278V16.1411Z" fill="#121110"/>
<path d="M272.316 35.3629H279.516V98.2301H272.316V35.3629Z" fill="#0D0C0C"/>
<path fill-rule="evenodd" clip-rule="evenodd" d="M295.882 32.7433V33.367C295.882 40.2561 290.058 45.8407 282.873 45.8407H250.35C241.613 45.8407 234.217 40.3344 231.73 32.7433H295.882Z" fill="#0D0C0C"/>
<path d="M305.974 49.0057C301.793 37.8172 297.698 33.5022 296.174 32.7433H278.858L276.898 64.6175C280.928 77.3025 288.92 102.997 288.659 104.298C288.333 105.923 295.194 118.283 296.174 120.235C297.153 122.186 304.668 130.642 307.281 132.919C309.895 135.196 314.795 135.521 317.736 136.172C320.088 136.692 330.477 132.052 335.377 129.667L343.218 98.5706C346.811 82.6338 327.928 103.096 320.349 93.2079C310.875 80.8486 311.201 62.9913 305.974 49.0057Z" fill="#0D0C0C"/>
<path fill-rule="evenodd" clip-rule="evenodd" d="M257.307 32.2094C261.411 33.7251 261.661 39.5193 257.702 41.3923C248.099 45.9369 236.682 41.7205 232.204 31.9746C230.358 27.9579 234.22 23.6818 238.323 25.1977L257.307 32.2094Z" fill="url(#paint0_linear_112_454)"/>
<path d="M276.243 3.95581C276.243 4.95684 275.544 5.79828 274.608 5.90682C271.115 6.31214 262.767 7.20354 256.933 7.20354C251.098 7.20354 242.751 6.31214 239.258 5.90682C238.321 5.79828 237.622 4.95684 237.622 3.95581C237.622 2.77119 238.591 1.84971 239.699 1.97624C243.414 2.4005 251.332 3.22206 256.933 3.22206C262.534 3.22206 270.451 2.4005 274.166 1.97624C275.274 1.84971 276.243 2.77119 276.243 3.95581Z" fill="#82726A" fill-opacity="0.1"/>
<path d="M234.349 64.1708C234.349 62.513 233.104 61.1315 231.483 61.036C230.281 60.9651 228.909 60.9026 227.803 60.9026C226.697 60.9026 225.324 60.9651 224.122 61.036C222.502 61.1315 221.257 62.513 221.257 64.1708C221.257 66.1357 222.984 67.6321 224.898 67.4336C225.888 67.3315 226.927 67.2535 227.803 67.2535C228.679 67.2535 229.718 67.3315 230.707 67.4336C232.622 67.6321 234.349 66.1357 234.349 64.1708Z" fill="#121110"/>
<g filter="url(#filter2_i_112_454)">
<path fill-rule="evenodd" clip-rule="evenodd" d="M278.862 58.2832C291.154 58.2832 301.118 67.2254 301.118 78.2567C301.118 89.2879 291.154 98.2301 278.862 98.2301V58.2832Z" fill="#D3A382"/>
</g>
<g filter="url(#filter3_iii_112_454)">
<path d="M328.612 179.098C328.612 165.54 316.973 154.549 302.616 154.549H283.769C258.644 154.549 238.276 173.783 238.276 197.511V281.593H328.612V179.098Z" fill="#0D0D0E"/>
</g>
<g filter="url(#filter4_ii_112_454)">
<path d="M181.653 241.973L165.649 240.518C163.844 240.354 162.25 241.688 162.092 243.493L161.637 248.695C161.322 252.301 163.99 255.478 167.594 255.79L180.527 256.91C181.303 256.976 181.965 256.356 181.949 255.576L181.653 241.973Z" fill="#D3A382"/>
</g>
<path d="M294.103 432.863C293.901 432.311 293.323 431.957 292.7 432.004L266.259 433.99C265.241 434.066 264.669 435.12 265.205 435.931L270.806 444.395C271.055 444.771 271.495 445 271.969 445H296.632C297.569 445 298.229 444.14 297.925 443.312L294.103 432.863Z" fill="#0E1014"/>
<g filter="url(#filter5_ii_112_454)">
<path d="M179.195 242.056L180.671 257.035L259.205 249.462C262.478 249.148 264.884 246.252 264.598 242.976C263.887 234.848 256.398 229.053 248.355 230.407L179.195 242.056Z" fill="#D3A382"/>
</g>
<g filter="url(#filter6_ii_112_454)">
<path d="M285.408 190.389L265.055 184.933L249.978 241.224C249.075 244.598 251.076 248.065 254.448 248.969C262.316 251.078 270.404 246.407 272.512 238.535L285.408 190.389Z" fill="#D3A382"/>
</g>
<path d="M158.414 240.336H163.651C164.736 240.336 165.615 241.216 165.615 242.301C165.615 243.386 164.736 244.266 163.651 244.266H158.414C157.33 244.266 156.451 243.386 156.451 242.301C156.451 241.216 157.33 240.336 158.414 240.336Z" fill="#D3A382"/>
<path d="M159.87 243.251L158.515 248.311C158.234 249.359 157.157 249.981 156.11 249.701C155.062 249.42 154.44 248.343 154.721 247.294L156.077 242.234C156.357 241.186 157.434 240.564 158.482 240.845C159.529 241.126 160.151 242.203 159.87 243.251Z" fill="#D3A382"/>
<path d="M157.76 242.301H162.997C164.081 242.301 164.961 243.18 164.961 244.266C164.961 245.351 164.081 246.23 162.997 246.23H157.76C156.675 246.23 155.796 245.351 155.796 244.266C155.796 243.18 156.675 242.301 157.76 242.301Z" fill="#D3A382"/>
<path d="M159.216 245.216L157.86 250.276C157.58 251.324 156.503 251.946 155.455 251.665C154.408 251.384 153.786 250.307 154.067 249.259L155.422 244.199C155.703 243.151 156.779 242.529 157.827 242.809C158.875 243.09 159.496 244.168 159.216 245.216Z" fill="#D3A382"/>
<path d="M158.414 244.92H163.651C164.736 244.92 165.615 245.8 165.615 246.885C165.615 247.97 164.736 248.85 163.651 248.85H158.414C157.33 248.85 156.451 247.97 156.451 246.885C156.451 245.8 157.33 244.92 158.414 244.92Z" fill="#D3A382"/>
<path d="M159.87 247.835L158.515 252.895C158.234 253.943 157.157 254.565 156.11 254.285C155.062 254.004 154.44 252.927 154.721 251.878L156.077 246.818C156.357 245.77 157.434 245.148 158.482 245.429C159.529 245.71 160.151 246.787 159.87 247.835Z" fill="#D3A382"/>
<path d="M160.061 246.885H164.576C165.512 246.885 166.27 247.643 166.27 248.579C166.27 249.515 165.512 250.273 164.576 250.273H160.061C159.125 250.273 158.367 249.515 158.367 248.579C158.367 247.643 159.125 246.885 160.061 246.885Z" fill="#D3A382"/>
<path d="M161.316 249.398L160.147 253.762C159.905 254.666 158.976 255.202 158.073 254.96C157.17 254.718 156.633 253.789 156.876 252.885L158.044 248.521C158.286 247.618 159.215 247.081 160.118 247.323C161.022 247.566 161.558 248.494 161.316 249.398Z" fill="#D3A382"/>
<path d="M293.605 184.071C297.546 175.269 292.678 165.029 283.366 162.533C275.011 160.293 266.424 165.253 264.186 173.611L259.429 191.371L286.39 200.184L293.605 184.071Z" fill="#0D0C0C"/>
<path d="M43.204 261.947H199.655C202.547 261.947 204.891 264.292 204.891 267.186V271.115C204.891 274.008 202.547 276.354 199.655 276.354H43.204C40.3118 276.354 37.9671 274.008 37.9671 271.115V267.186C37.9671 264.292 40.3118 261.947 43.204 261.947Z" fill="#0D0C0C"/>
<path d="M180.001 257.256L147.348 254.337L146.955 259.968L179.688 261.96L180.001 257.256Z" fill="#0E1014"/>
<path d="M149.905 259.982H150.559V261.947H149.905V259.982Z" fill="#0E1014"/>
<path d="M51.7138 277.664L34.0395 280.938V276.354H58.2599L51.7138 277.664Z" fill="#0E1014"/>
<path d="M36.0033 261.947H37.9671V276.354H36.0033V261.947Z" fill="#E5E5E5"/>
<path d="M7.16005 177.489C6.32477 175.685 4.18355 174.902 2.38207 175.742C0.581253 176.582 -0.195763 178.724 0.646713 180.525L38.6217 261.619L45.8224 260.965L7.16005 177.489Z" fill="#E6E6E6"/>
<path d="M51.0592 260.637L33.3849 257.363V261.947H57.6053L51.0592 260.637Z" fill="#0E1014"/>
<path d="M6.91936 181.542L0.683411 177.94L47.4415 96.92L53.6775 100.522L6.91936 181.542Z" fill="#E5E5E5"/>
<g filter="url(#filter7_dd_112_454)">
<path d="M55.6414 20.3009H61.5329V162.407H55.6414V20.3009Z" fill="#0E1014"/>
</g>
<path d="M125.5 298.5L144 433L168.5 431L171.5 329.5C174.624 329.695 180.5 330 180.5 330H196.5H221.5L202.5 282H180C169.167 282.333 145.5 282.8 137.5 282C129.5 281.2 126.167 292.667 125.5 298.5Z" fill="url(#paint1_linear_112_454)"/>
<path d="M55.6414 87.7522C50.9414 87.7522 47.1316 91.5635 47.1316 96.2655V102.814C47.1316 107.516 50.9414 111.327 55.6414 111.327V87.7522Z" fill="#0E1014"/>
<path d="M47.1316 275.044H61.5329V512.106H47.1316V275.044Z" fill="#0D0C0C"/>
<path d="M180.671 275.044H195.072V512.106H180.671V275.044Z" fill="#0D0C0C"/>
<path d="M236 40C235.333 41.3333 233.7 44.7 232.5 47.5C231 51 229.5 56 229.5 57C229.5 57.8 229.167 60 229 61" stroke="#E9BEA1" stroke-opacity="0.41" stroke-width="3" stroke-linejoin="round"/>
<path d="M347.215 246.193C347.215 246.193 238.706 242.593 208.227 262.923C193.916 272.468 243.393 344.693 243.393 344.693L254.732 337.545C254.732 337.545 215.594 283.702 231.89 272.898C262.328 252.717 347.418 264.499 347.418 264.499L347.215 246.193Z" fill="#0E1014"/>
</g>
<defs>
<filter id="filter0_i_112_454" x="220.602" y="72.6902" width="17.0201" height="31.5043" filterUnits="userSpaceOnUse" color-interpolation-filters="sRGB">
<feFlood flood-opacity="0" result="BackgroundImageFix"/>
<feBlend mode="normal" in="SourceGraphic" in2="BackgroundImageFix" result="shape"/>
<feColorMatrix in="SourceAlpha" type="matrix" values="0 0 0 0 0 0 0 0 0 0 0 0 0 0 0 0 0 0 127 0" result="hardAlpha"/>
<feOffset dy="4"/>
<feGaussianBlur stdDeviation="10"/>
<feComposite in2="hardAlpha" operator="arithmetic" k2="-1" k3="1"/>
<feColorMatrix type="matrix" values="0 0 0 0 0.858824 0 0 0 0 0.682353 0 0 0 0 0.556863 0 0 0 1 0"/>
<feBlend mode="normal" in2="shape" result="effect1_innerShadow_112_454"/>
</filter>
<filter id="filter1_ii_112_454" x="227.148" y="11.1328" width="131.283" height="136.867" filterUnits="userSpaceOnUse" color-interpolation-filters="sRGB">
<feFlood flood-opacity="0" result="BackgroundImageFix"/>
<feBlend mode="normal" in="SourceGraphic" in2="BackgroundImageFix" result="shape"/>
<feColorMatrix in="SourceAlpha" type="matrix" values="0 0 0 0 0 0 0 0 0 0 0 0 0 0 0 0 0 0 127 0" result="hardAlpha"/>
<feOffset dx="30"/>
<feGaussianBlur stdDeviation="10"/>
<feComposite in2="hardAlpha" operator="arithmetic" k2="-1" k3="1"/>
<feColorMatrix type="matrix" values="0 0 0 0 0.941667 0 0 0 0 0.779229 0 0 0 0 0.670938 0 0 0 1 0"/>
<feBlend mode="normal" in2="shape" result="effect1_innerShadow_112_454"/>
<feColorMatrix in="SourceAlpha" type="matrix" values="0 0 0 0 0 0 0 0 0 0 0 0 0 0 0 0 0 0 127 0" result="hardAlpha"/>
<feOffset dx="90"/>
<feGaussianBlur stdDeviation="10"/>
<feComposite in2="hardAlpha" operator="arithmetic" k2="-1" k3="1"/>
<feColorMatrix type="matrix" values="0 0 0 0 0.466667 0 0 0 0 0.277695 0 0 0 0 0.147778 0 0 0 0.25 0"/>
<feBlend mode="normal" in2="effect1_innerShadow_112_454" result="effect2_innerShadow_112_454"/>
</filter>
<filter id="filter2_i_112_454" x="278.862" y="58.2832" width="26.2566" height="43.9469" filterUnits="userSpaceOnUse" color-interpolation-filters="sRGB">
<feFlood flood-opacity="0" result="BackgroundImageFix"/>
<feBlend mode="normal" in="SourceGraphic" in2="BackgroundImageFix" result="shape"/>
<feColorMatrix in="SourceAlpha" type="matrix" values="0 0 0 0 0 0 0 0 0 0 0 0 0 0 0 0 0 0 127 0" result="hardAlpha"/>
<feOffset dx="4" dy="4"/>
<feGaussianBlur stdDeviation="2"/>
<feComposite in2="hardAlpha" operator="arithmetic" k2="-1" k3="1"/>
<feColorMatrix type="matrix" values="0 0 0 0 0.737255 0 0 0 0 0.54902 0 0 0 0 0.415686 0 0 0 1 0"/>
<feBlend mode="normal" in2="shape" result="effect1_innerShadow_112_454"/>
</filter>
<filter id="filter3_iii_112_454" x="238.276" y="154.549" width="94.3355" height="127.044" filterUnits="userSpaceOnUse" color-interpolation-filters="sRGB">
<feFlood flood-opacity="0" result="BackgroundImageFix"/>
<feBlend mode="normal" in="SourceGraphic" in2="BackgroundImageFix" result="shape"/>
<feColorMatrix in="SourceAlpha" type="matrix" values="0 0 0 0 0 0 0 0 0 0 0 0 0 0 0 0 0 0 127 0" result="hardAlpha"/>
<feOffset dx="95"/>
<feGaussianBlur stdDeviation="2"/>
<feComposite in2="hardAlpha" operator="arithmetic" k2="-1" k3="1"/>
<feColorMatrix type="matrix" values="0 0 0 0 0 0 0 0 0 0 0 0 0 0 0 0 0 0 0.3 0"/>
<feBlend mode="normal" in2="shape" result="effect1_innerShadow_112_454"/>
<feColorMatrix in="SourceAlpha" type="matrix" values="0 0 0 0 0 0 0 0 0 0 0 0 0 0 0 0 0 0 127 0" result="hardAlpha"/>
<feOffset dx="25"/>
<feGaussianBlur stdDeviation="2"/>
<feComposite in2="hardAlpha" operator="arithmetic" k2="-1" k3="1"/>
<feColorMatrix type="matrix" values="0 0 0 0 0.0833333 0 0 0 0 0.0829861 0 0 0 0 0.0829861 0 0 0 0.25 0"/>
<feBlend mode="normal" in2="effect1_innerShadow_112_454" result="effect2_innerShadow_112_454"/>
<feColorMatrix in="SourceAlpha" type="matrix" values="0 0 0 0 0 0 0 0 0 0 0 0 0 0 0 0 0 0 127 0" result="hardAlpha"/>
<feOffset dx="3"/>
<feGaussianBlur stdDeviation="0.5"/>
<feComposite in2="hardAlpha" operator="arithmetic" k2="-1" k3="1"/>
<feColorMatrix type="matrix" values="0 0 0 0 0.325 0 0 0 0 0.325 0 0 0 0 0.325 0 0 0 0.05 0"/>
<feBlend mode="normal" in2="effect2_innerShadow_112_454" result="effect3_innerShadow_112_454"/>
</filter>
<filter id="filter4_ii_112_454" x="157.612" y="236.505" width="24.3372" height="24.4099" filterUnits="userSpaceOnUse" color-interpolation-filters="sRGB">
<feFlood flood-opacity="0" result="BackgroundImageFix"/>
<feBlend mode="normal" in="SourceGraphic" in2="BackgroundImageFix" result="shape"/>
<feColorMatrix in="SourceAlpha" type="matrix" values="0 0 0 0 0 0 0 0 0 0 0 0 0 0 0 0 0 0 127 0" result="hardAlpha"/>
<feOffset dy="-4"/>
<feGaussianBlur stdDeviation="2"/>
<feComposite in2="hardAlpha" operator="arithmetic" k2="-1" k3="1"/>
<feColorMatrix type="matrix" values="0 0 0 0 0.796078 0 0 0 0 0.596078 0 0 0 0 0.458824 0 0 0 1 0"/>
<feBlend mode="normal" in2="shape" result="effect1_innerShadow_112_454"/>
<feColorMatrix in="SourceAlpha" type="matrix" values="0 0 0 0 0 0 0 0 0 0 0 0 0 0 0 0 0 0 127 0" result="hardAlpha"/>
<feOffset dx="-4" dy="6"/>
<feGaussianBlur stdDeviation="2"/>
<feComposite in2="hardAlpha" operator="arithmetic" k2="-1" k3="1"/>
<feColorMatrix type="matrix" values="0 0 0 0 0.882353 0 0 0 0 0.698039 0 0 0 0 0.576471 0 0 0 1 0"/>
<feBlend mode="normal" in2="effect1_innerShadow_112_454" result="effect2_innerShadow_112_454"/>
</filter>
<filter id="filter5_ii_112_454" x="179.195" y="230.21" width="85.4261" height="31.825" filterUnits="userSpaceOnUse" color-interpolation-filters="sRGB">
<feFlood flood-opacity="0" result="BackgroundImageFix"/>
<feBlend mode="normal" in="SourceGraphic" in2="BackgroundImageFix" result="shape"/>
<feColorMatrix in="SourceAlpha" type="matrix" values="0 0 0 0 0 0 0 0 0 0 0 0 0 0 0 0 0 0 127 0" result="hardAlpha"/>
<feOffset dy="20"/>
<feGaussianBlur stdDeviation="2"/>
<feComposite in2="hardAlpha" operator="arithmetic" k2="-1" k3="1"/>
<feColorMatrix type="matrix" values="0 0 0 0 0.654167 0 0 0 0 0.410267 0 0 0 0 0.242587 0 0 0 0.3 0"/>
<feBlend mode="normal" in2="shape" result="effect1_innerShadow_112_454"/>
<feColorMatrix in="SourceAlpha" type="matrix" values="0 0 0 0 0 0 0 0 0 0 0 0 0 0 0 0 0 0 127 0" result="hardAlpha"/>
<feOffset dy="5"/>
<feGaussianBlur stdDeviation="7.5"/>
<feComposite in2="hardAlpha" operator="arithmetic" k2="-1" k3="1"/>
<feColorMatrix type="matrix" values="0 0 0 0 0.929167 0 0 0 0 0.757099 0 0 0 0 0.638802 0 0 0 1 0"/>
<feBlend mode="normal" in2="effect1_innerShadow_112_454" result="effect2_innerShadow_112_454"/>
</filter>
<filter id="filter6_ii_112_454" x="245.761" y="180.933" width="43.6467" height="68.542" filterUnits="userSpaceOnUse" color-interpolation-filters="sRGB">
<feFlood flood-opacity="0" result="BackgroundImageFix"/>
<feBlend mode="normal" in="SourceGraphic" in2="BackgroundImageFix" result="shape"/>
<feColorMatrix in="SourceAlpha" type="matrix" values="0 0 0 0 0 0 0 0 0 0 0 0 0 0 0 0 0 0 127 0" result="hardAlpha"/>
<feOffset dx="20"/>
<feGaussianBlur stdDeviation="2"/>
<feComposite in2="hardAlpha" operator="arithmetic" k2="-1" k3="1"/>
<feColorMatrix type="matrix" values="0 0 0 0 0.890196 0 0 0 0 0.709804 0 0 0 0 0.580392 0 0 0 1 0"/>
<feBlend mode="normal" in2="shape" result="effect1_innerShadow_112_454"/>
<feColorMatrix in="SourceAlpha" type="matrix" values="0 0 0 0 0 0 0 0 0 0 0 0 0 0 0 0 0 0 127 0" result="hardAlpha"/>
<feOffset dx="-15" dy="-8"/>
<feGaussianBlur stdDeviation="2"/>
<feComposite in2="hardAlpha" operator="arithmetic" k2="-1" k3="1"/>
<feColorMatrix type="matrix" values="0 0 0 0 0.796078 0 0 0 0 0.596078 0 0 0 0 0.458824 0 0 0 1 0"/>
<feBlend mode="normal" in2="effect1_innerShadow_112_454" result="effect2_innerShadow_112_454"/>
</filter>
<filter id="filter7_dd_112_454" x="40.6414" y="-4.6991" width="55.8914" height="192.106" filterUnits="userSpaceOnUse" color-interpolation-filters="sRGB">
<feFlood flood-opacity="0" result="BackgroundImageFix"/>
<feColorMatrix in="SourceAlpha" type="matrix" values="0 0 0 0 0 0 0 0 0 0 0 0 0 0 0 0 0 0 127 0" result="hardAlpha"/>
<feOffset dx="10"/>
<feGaussianBlur stdDeviation="12.5"/>
<feComposite in2="hardAlpha" operator="out"/>
<feColorMatrix type="matrix" values="0 0 0 0 0.495625 0 0 0 0 0.917475 0 0 0 0 0.975 0 0 0 0.11 0"/>
<feBlend mode="normal" in2="BackgroundImageFix" result="effect1_dropShadow_112_454"/>
<feColorMatrix in="SourceAlpha" type="matrix" values="0 0 0 0 0 0 0 0 0 0 0 0 0 0 0 0 0 0 127 0" result="hardAlpha"/>
<feOffset dx="5"/>
<feGaussianBlur stdDeviation="2"/>
<feComposite in2="hardAlpha" operator="out"/>
<feColorMatrix type="matrix" values="0 0 0 0 0.320833 0 0 0 0 1 0 0 0 0 0.87775 0 0 0 0.03 0"/>
<feBlend mode="normal" in2="effect1_dropShadow_112_454" result="effect2_dropShadow_112_454"/>
<feBlend mode="normal" in="SourceGraphic" in2="effect2_dropShadow_112_454" result="shape"/>
</filter>
<linearGradient id="paint0_linear_112_454" x1="241.049" y1="22.2894" x2="251.481" y2="44.336" gradientUnits="userSpaceOnUse">
<stop stop-color="#0D0C0C"/>
<stop offset="0.541667" stop-color="#0D0C0C"/>
<stop offset="1" stop-color="#0D0C0C"/>
</linearGradient>
<linearGradient id="paint1_linear_112_454" x1="116" y1="313.5" x2="222" y2="316" gradientUnits="userSpaceOnUse">
<stop stop-color="#A8926F"/>
<stop offset="1" stop-color="#E1C79D" stop-opacity="0.58"/>
</linearGradient>
<clipPath id="clip0_112_454">
<rect width="398" height="518" fill="white" transform="matrix(-1 0 0 1 398 0)"/>
</clipPath>
</defs>
</svg>
